# xmcd CD database file
#
# Track frame offsets:
#	150
#	15745
#	30615
#	44060
#	57860
#	71125
#	86177
#	97532
#
# Disc length: 1548 seconds
#
# Revision: 0
# Processed by: cddbd v1.5.2PL0 Copyright (c) Steve Scherf et al.
# Submitted via: CDex 1.70beta2
#
DISCID=64060a08
DTITLE=Palmer, Jerry, Cdn. ON - Thunder Bay - Good Ole' Buddies
DYEAR=2003
DGENRE=Country
TTITLE0=On the Run
TTITLE1=Hold On
TTITLE2=Good Ole' Biddies
TTITLE3=Silent Tears She Cries
TTITLE4=My Baby's Gone
TTITLE5=I Just Want A Little Bit of Her Love
TTITLE6=Darlin' Let's Try and Make It One More Time
TTITLE7=Gift of A Lifetime
EXTD=YEAR: 2003
EXTT0=
EXTT1=
EXTT2=
EXTT3=
EXTT4=
EXTT5=
EXTT6=
EXTT7=
PLAYORDER=
